Coordinates
version=1
nRows=15
nColumns=34
inDegrees=no

Units are S.I. units (second, meters, Newtons, ...)
If the header above contains a line with 'inDegrees', this indicates whether rotational values are in degrees (yes) or radians (no).

endheader
time	pelvis_tilt	pelvis_list	pelvis_rotation	pelvis_tx	pelvis_ty	pelvis_tz	hip_flexion_r	hip_adduction_r	hip_rotation_r	knee_angle_r	ankle_angle_r	subtalar_angle_r	mtp_angle_r	hip_flexion_l	hip_adduction_l	hip_rotation_l	knee_angle_l	ankle_angle_l	subtalar_angle_l	mtp_angle_l	lumbar_extension	lumbar_bending	lumbar_rotation	arm_flex_r	arm_add_r	arm_rot_r	elbow_flex_r	pro_sup_r	arm_flex_l	arm_add_l	arm_rot_l	elbow_flex_l	pro_sup_l
2.41	-0.0478411	0.0173396	0.0926279	-0.0874382	1.54625	-0.527223	-0.0175962	-0.138968	-0.396428	0.104942	-0.477401	0.280674	-0.019656	0.029948	-0.142712	-0.636868	0.0704228	-0.678356	0.166044	-0.019656	-0.190524	-0.0489683	0.00695122	5.20694	-0.66745	5.24996	1.69553	2.02773	-0.0808697	-0.668739	0.0180614	1.83438	2.09373
2.42	-0.0481478	0.0187464	0.0969553	-0.087207	1.54972	-0.525603	-0.0169972	-0.140863	-0.413692	0.10333	-0.448073	0.257997	-0.019656	0.0330908	-0.141495	-0.664221	0.0692324	-0.661827	0.142474	-0.019656	-0.195518	-0.051847	-0.00681343	5.229	-0.641668	5.30403	1.68341	2.04262	-0.107042	-0.644583	0.0120539	1.83292	2.09269
2.43	-0.048768	0.0197619	0.0998019	-0.0871107	1.55214	-0.523877	-0.0146762	-0.142606	-0.425941	0.103464	-0.419935	0.233215	-0.019656	0.0368837	-0.140985	-0.684934	0.0696798	-0.644304	0.119612	-0.019656	-0.200504	-0.054207	-0.0182239	5.24961	-0.615265	5.35364	1.67509	2.05506	-0.128736	-0.623454	0.0104778	1.83383	2.09153
2.44	-0.0494546	0.0204271	0.101102	-0.087147	1.55354	-0.522036	-0.010934	-0.144174	-0.4328	0.10528	-0.393248	0.208049	-0.019656	0.0409419	-0.141094	-0.698872	0.0713418	-0.626112	0.0986151	-0.019656	-0.205744	-0.0561265	-0.0272647	5.26902	-0.588344	5.39926	1.67021	2.06472	-0.146442	-0.6049	0.0123152	1.83639	2.09052
2.45	-0.0499701	0.0207721	0.100876	-0.0873038	1.55394	-0.520078	-0.00615191	-0.145532	-0.434309	0.108595	-0.368336	0.184034	-0.019656	0.0449168	-0.141802	-0.706824	0.0738938	-0.607692	0.0803298	-0.019656	-0.21145	-0.057645	-0.0340801	5.28746	-0.56114	5.44143	1.66841	2.07146	-0.160608	-0.588423	0.0166439	1.83999	2.08977
2.46	-0.0501249	0.0207987	0.0992142	-0.0875629	1.55336	-0.51801	-0.000716631	-0.146621	-0.430729	0.113167	-0.345555	0.162285	-0.019656	0.0485556	-0.143157	-0.710104	0.0771528	-0.589498	0.065231	-0.019656	-0.217751	-0.058762	-0.0389451	5.30515	-0.533994	5.4807	1.66932	2.07541	-0.171689	-0.57354	0.0226547	1.84413	2.08933
2.47	-0.0498028	0.0204733	0.0962554	-0.0879027	1.55181	-0.515843	0.00504431	-0.147345	-0.422421	0.118739	-0.325213	0.143403	-0.019656	0.0517351	-0.145264	-0.710156	0.0810799	-0.571907	0.0533955	-0.019656	-0.224675	-0.0594434	-0.0422175	5.32236	-0.507314	5.5176	1.67254	2.07688	-0.180157	-0.559829	0.0296599	1.84845	2.08916
2.48	-0.0489712	0.0197366	0.0921627	-0.0883022	1.54931	-0.513589	0.0109041	-0.147589	-0.409805	0.125087	-0.307472	0.127501	-0.019656	0.0544675	-0.148259	-0.708238	0.0857524	-0.555165	0.0445192	-0.019656	-0.232149	-0.0596409	-0.0442876	5.33934	-0.48152	5.55263	1.67767	2.07634	-0.186494	-0.546953	0.0370936	1.85274	2.08919
2.49	-0.0476784	0.0185215	0.0871042	-0.0887435	1.54584	-0.511259	0.0167565	-0.147242	-0.393354	0.132049	-0.292261	0.114301	-0.019656	0.0568849	-0.152266	-0.705242	0.0913246	-0.539349	0.0379794	-0.019656	-0.240015	-0.0593177	-0.0455311	5.35636	-0.456992	5.58623	1.68429	2.07437	-0.191161	-0.53468	0.0445122	1.85687	2.08935
2.5	-0.0460354	0.0167759	0.081233	-0.0892137	1.5414	-0.508861	0.0226083	-0.14622	-0.373609	0.139537	-0.279254	0.103277	-0.019656	0.0592023	-0.157375	-0.701614	0.0979843	-0.524356	0.0329384	-0.019656	-0.248068	-0.0584741	-0.0462682	5.37367	-0.434021	5.61873	1.692	2.07159	-0.194565	-0.522889	0.051601	1.86085	2.08955
2.51	-0.0441886	0.0144808	0.0746741	-0.089706	1.53598	-0.5064	0.0285528	-0.14449	-0.351186	0.147539	-0.267917	0.0937833	-0.019656	0.0616714	-0.163611	-0.697395	0.105914	-0.509921	0.0284765	-0.019656	-0.256092	-0.057163	-0.0467352	5.3915	-0.412769	5.65037	1.70046	2.06848	-0.19702	-0.511567	0.0581786	1.86476	2.08975
2.52	-0.0422923	0.011664	0.0675295	-0.0902205	1.52955	-0.503879	0.0347343	-0.142087	-0.326791	0.156104	-0.257588	0.0851968	-0.019656	0.0645406	-0.170928	-0.692319	0.11526	-0.495661	0.0237284	-0.019656	-0.263905	-0.0554909	-0.0470827	5.41006	-0.39324	5.68125	1.70941	2.06548	-0.198728	-0.500794	0.064193	1.86872	2.08992
2.53	-0.0404853	0.00840192	0.0598899	-0.090764	1.52212	-0.5013	0.041313	-0.139109	-0.301216	0.165328	-0.24759	0.0770117	-0.019656	0.0680264	-0.179203	-0.685951	0.126116	-0.481136	0.018002	-0.019656	-0.271385	-0.0536027	-0.0473899	5.42948	-0.375283	5.71132	1.71869	2.06309	-0.199765	-0.490719	0.0697059	1.8729	2.09004
2.54	-0.0388726	0.00481172	0.051845	-0.0913486	1.51367	-0.498671	0.0484345	-0.135715	-0.275272	0.175337	-0.237318	0.0688678	-0.019656	0.072295	-0.18825	-0.677818	0.138515	-0.465899	0.0108577	-0.019656	-0.278481	-0.0516579	-0.0476844	5.44984	-0.358636	5.74044	1.72822	2.06178	-0.200095	-0.481524	0.0748677	1.87743	2.0901
2.55	-0.0375144	0.00103309	0.0434878	-0.0919902	1.5042	-0.496003	0.0562058	-0.132093	-0.249708	0.186256	-0.226304	0.0605341	-0.019656	0.0774533	-0.197838	-0.667483	0.152429	-0.449562	0.00212969	-0.019656	-0.285221	-0.0498029	-0.0479643	5.47118	-0.342979	5.76846	1.73806	2.06175	-0.199578	-0.473397	0.0798826	1.88244	2.09013
